<?xml version="1.0" standalone="no"?>
<!DOCTYPE svg PUBLIC "-//W3C//DTD SVG 20010904//EN"
 "http://www.w3.org/TR/2001/REC-SVG-20010904/DTD/svg10.dtd">
<svg version="1.0" xmlns="http://www.w3.org/2000/svg"
 width="200.000000pt" height="200.000000pt" viewBox="0 0 200.000000 200.000000"
 preserveAspectRatio="xMidYMid meet">
<metadata>
Created by potrace 1.15, written by Peter Selinger 2001-2017
</metadata>
<g transform="translate(0.000000,200.000000) scale(0.100000,-0.100000)"
fill="#000000" stroke="none">
<path d="M79 1941 l-39 -39 0 -896 c0 -985 -3 -939 60 -971 44 -23 1376 -23
1420 0 57 30 61 48 58 330 l-3 255 -67 -121 -68 -122 0 -108 0 -109 -630 0
-630 0 0 840 0 840 630 0 630 0 2 -386 3 -386 68 120 67 120 0 297 0 297 -39
39 -39 39 -692 0 -692 0 -39 -39z"/>
<path d="M300 1570 l0 -50 390 0 390 0 0 50 0 50 -390 0 -390 0 0 -50z"/>
<path d="M1782 1468 c-13 -18 -42 -75 -42 -85 0 -10 123 -83 139 -83 7 0 61
84 61 96 0 4 -136 84 -143 84 -3 0 -9 -6 -15 -12z"/>
<path d="M300 1330 l0 -50 510 0 510 0 0 50 0 50 -510 0 -510 0 0 -50z"/>
<path d="M1447 906 l-247 -425 0 -90 c0 -50 3 -91 8 -91 4 0 38 20 75 43 l68
42 245 425 c135 234 246 429 247 434 2 9 -121 85 -138 86 -6 0 -121 -191 -258
-424z"/>
<path d="M300 1110 l0 -50 390 0 390 0 0 50 0 50 -390 0 -390 0 0 -50z"/>
<path d="M300 870 l0 -50 510 0 510 0 0 50 0 50 -510 0 -510 0 0 -50z"/>
<path d="M300 650 l0 -50 390 0 390 0 0 50 0 50 -390 0 -390 0 0 -50z"/>
<path d="M341 456 c-57 -32 -68 -111 -22 -157 24 -24 38 -29 76 -29 64 0 95
31 95 95 0 83 -77 131 -149 91z"/>
<path d="M648 454 c-70 -37 -64 -144 9 -179 67 -32 143 14 143 87 0 50 -13 74
-50 93 -36 19 -67 19 -102 -1z"/>
</g>
</svg>
