<?xml version="1.0" encoding="iso-8859-1"?>
<!-- Generator: Adobe Illustrator 17.1.0, SVG Export Plug-In . SVG Version: 6.00 Build 0)  -->
<!DOCTYPE svg PUBLIC "-//W3C//DTD SVG 1.1//EN" "http://www.w3.org/Graphics/SVG/1.1/DTD/svg11.dtd">
<svg version="1.1" id="Capa_1" xmlns="http://www.w3.org/2000/svg" xmlns:xlink="http://www.w3.org/1999/xlink" x="0px" y="0px"
	 viewBox="0 0 303.3 303.3" style="enable-background:new 0 0 303.3 303.3;" xml:space="preserve">
<g>
	<path d="M57.354,86.87c25.263,8.711,58.751,13.509,94.296,13.509c35.545,0,69.033-4.798,94.296-13.509
		c26.926-9.285,41.754-22.312,41.754-36.681c0-14.369-14.828-27.396-41.754-36.681C220.683,4.798,187.195,0,151.65,0
		c-35.545,0-69.033,4.798-94.296,13.509C30.428,22.793,15.6,35.82,15.6,50.189C15.6,64.559,30.428,77.585,57.354,86.87z"/>
	<path d="M278.419,104.775c-2.134,0-4.445,0.72-7.069,2.2c-3.873,2.187-8.764,3.865-13.942,5.643l-1.501,0.517
		c-28.27,9.749-65.296,15.118-104.256,15.118c-38.96,0-75.986-5.369-104.256-15.118c-7.995-2.757-10.217-3.624-13.171-5.138
		c-3.003-1.57-5.798-2.367-8.31-2.367c-5.441,0-8.783,3.641-9.682,7.25c-0.419,1.682-0.631,3.398-0.631,5.101
		c0,14.369,14.828,27.397,41.753,36.681c25.263,8.711,58.751,13.509,94.296,13.509c35.545,0,69.033-4.798,94.296-13.509
		c26.926-9.284,41.754-22.312,41.754-36.681c0-2.237-0.365-4.483-1.096-6.707C284.748,105.62,280.68,104.775,278.419,104.775z"/>
	<path d="M278.419,171.909c-2.134,0-4.445,0.72-7.068,2.2c-3.87,2.184-8.757,3.861-13.93,5.638l-1.515,0.521
		c-28.271,9.748-65.297,15.117-104.256,15.117c-38.96,0-75.985-5.369-104.256-15.117c-7.996-2.758-10.218-3.626-13.172-5.139
		c-3.003-1.57-5.798-2.367-8.31-2.367c-5.441,0-8.783,3.641-9.682,7.25c-0.419,1.682-0.631,3.398-0.631,5.101
		c0,14.369,14.828,27.396,41.753,36.682c25.263,8.711,58.751,13.509,94.296,13.509c35.545,0,69.033-4.798,94.296-13.509
		c26.926-9.285,41.754-22.313,41.754-36.682c0-2.238-0.365-4.484-1.096-6.706C284.748,172.754,280.68,171.909,278.419,171.909z"/>
	<path d="M278.419,239.906c-2.134,0-4.445,0.719-7.068,2.199c-3.877,2.188-8.771,3.867-13.954,5.647l-1.49,0.513
		c-28.27,9.749-65.296,15.118-104.256,15.118c-38.96,0-75.986-5.369-104.256-15.118c-7.995-2.757-10.217-3.624-13.171-5.138
		c-3.003-1.57-5.798-2.367-8.31-2.367c-5.441,0-8.783,3.641-9.682,7.25c-0.419,1.682-0.631,3.398-0.631,5.101
		c0,14.369,14.828,27.396,41.753,36.681c25.263,8.711,58.751,13.509,94.296,13.509c35.545,0,69.033-4.798,94.296-13.509
		c26.926-9.284,41.754-22.311,41.754-36.681c0-2.238-0.365-4.484-1.095-6.705C284.749,240.75,280.68,239.906,278.419,239.906z"/>
</g>
<g>
</g>
<g>
</g>
<g>
</g>
<g>
</g>
<g>
</g>
<g>
</g>
<g>
</g>
<g>
</g>
<g>
</g>
<g>
</g>
<g>
</g>
<g>
</g>
<g>
</g>
<g>
</g>
<g>
</g>
</svg>
