<?xml version="1.0" encoding="iso-8859-1"?>
<!-- Generator: Adobe Illustrator 19.0.0, SVG Export Plug-In . SVG Version: 6.00 Build 0)  -->
<svg version="1.1" id="Capa_1" xmlns="http://www.w3.org/2000/svg" xmlns:xlink="http://www.w3.org/1999/xlink" x="0px" y="0px"
	 viewBox="0 0 491.925 491.925" style="enable-background:new 0 0 491.925 491.925;" xml:space="preserve">
<g>
	<g>
		<g>
			<path style="fill:#010002;" d="M280.497,120.476c3.085-8.391,3.192-15.358-0.41-19.694c-6.795-8.046-24.655-5.026-45.816,5.975
				l-58.716-70.191c9.621-14.064,13.352-26.424,8.197-32.637c-8.909-10.591-40.23,0.971-69.932,25.799
				C84.095,54.599,67.27,83.352,76.179,94.03c5.177,6.191,17.968,4.681,33.543-2.308l24.073,28.754H52.645v371.449H439.28V120.476
				H280.497z M412.661,465.285c-23.706,0-309.713,0-333.441,0c0-23.598,0-294.614,0-318.234c7.032,0,37.274,0,76.814,0
				l12.425,14.841c-14.539,18.896-20.665,35.958-13.892,44.026c9.383,11.217,40.035,1.251,71.378-22.132l49.246,55.696
				c0,0,9.685,4.422,16.351-2.243c6.665-6.622,3.494-14.345,3.494-14.345l-49.225-55.739c7.14-6.687,13.417-13.482,18.702-20.104
				c70.838,0,137.255,0,148.148,0C412.661,170.671,412.661,441.686,412.661,465.285z"/>
			<rect x="115.847" y="267.157" style="fill:#010002;" width="258.742" height="35.117"/>
			<rect x="115.847" y="362.931" style="fill:#010002;" width="258.742" height="35.117"/>
		</g>
	</g>
	<g>
	</g>
	<g>
	</g>
	<g>
	</g>
	<g>
	</g>
	<g>
	</g>
	<g>
	</g>
	<g>
	</g>
	<g>
	</g>
	<g>
	</g>
	<g>
	</g>
	<g>
	</g>
	<g>
	</g>
	<g>
	</g>
	<g>
	</g>
	<g>
	</g>
</g>
<g>
</g>
<g>
</g>
<g>
</g>
<g>
</g>
<g>
</g>
<g>
</g>
<g>
</g>
<g>
</g>
<g>
</g>
<g>
</g>
<g>
</g>
<g>
</g>
<g>
</g>
<g>
</g>
<g>
</g>
</svg>
