<?xml version="1.0" ?><svg clip-rule="evenodd" fill-rule="evenodd" image-rendering="optimizeQuality" shape-rendering="geometricPrecision" text-rendering="geometricPrecision" viewBox="0 0 500 500" xmlns="http://www.w3.org/2000/svg"><defs><style type="text/css"><![CDATA[
    .str1 {stroke:#434242;stroke-width:10}
    .str0 {stroke:#434242;stroke-width:15}
    .fil1 {fill:#FFFFFF}
    .fil0 {fill:url(#id0)}
   ]]></style><radialGradient cx="48%" fx="48%" fy="50%" id="id0"><stop offset="0" stop-color="#0af"/><stop offset="1" stop-color="#008BFF"/></radialGradient></defs><g id="Layer_x0020_1"><path class="fil0 str0" d="M30 250c0 122 98 220 220 220s220-98 220-220-98-220-220-220-220 98-220 220z"/><path class="fil1 str1" d="M293 120v88h87c5 0 10 4 10 10v64c0 6-5 11-10 11h-87v87c0 5-5 10-11 10h-64c-6 0-10-5-10-10v-87h-88c-5 0-10-5-10-11v-64c0-6 5-10 10-10h88v-88c0-5 4-10 10-10h64c6 0 11 5 11 10z"/></g></svg>